<svg xmlns="http://www.w3.org/2000/svg" xmlns:xlink="http://www.w3.org/1999/xlink" id="svg_canvas" data-noselect=""
     viewBox="0 0 800 600" width="800" height="600" preserveAspectRatio="none" version="1.1">
    <defs>
        <filter id="filter_shadow_shape_vnJ69ZZodS" width="300%" height="300%" x="-100%" y="-100%">
            <feDropShadow dx="4.421452482438433" dy="4.421452482438432" stdDeviation="0.6252878066052705"
                          flood-color="#EC008C" flood-opacity="1"/>
        </filter>
        <filter id="filter_shadow_shape_gaL3mdqcEy" width="300%" height="300%" x="-100%" y="-100%">
            <feDropShadow dx="-7.918942975037248" dy="9.697908167009783e-16" stdDeviation="0" flood-color="#00188F"
                          flood-opacity="1"/>
        </filter>
    </defs>
    <g id="background" data-noselect="">
        <rect fill="#ffffff" width="800" height="600" data-noselect=""/> <!---->
    </g>
    <g id="shape_ITGmQiAApm" transform="translate(222.5,122.5) rotate(0,177.5,177.5) scale(1,1)" filter=""
       style="cursor: move; opacity: 1;">
        <g>
            <rect fill="rgba(0,0,0,0)" width="375" height="375" x="-10" y="-10"/>
            <svg xmlns="http://www.w3.org/2000/svg" xmlns:xlink="http://www.w3.org/1999/xlink" version="1.1" id="图层_1"
                 x="0px" y="0px" width="355" height="355" viewBox="0 0 200 200"
                 style="enable-background:new 0 0 200 200;" xml:space="preserve" class="style-removed"
                 preserveAspectRatio="none" data-parent="shape_ITGmQiAApm">

<g>
	<path d="M161.1,67l9.6-16c-0.6-1.1-1.3-2.2-2-3.3l-18.2,1.4C155,54.3,158.6,60.4,161.1,67z" fill="RGB(107, 38, 197)"
          stroke-width="0"/>
    <path d="M91.9,166c-4.7,0.5-9.3,0.6-13.7,0.4l3.8,6.9c4.7,0.2,9.6,0.1,14.5-0.5c0.5-0.1,1.1-0.1,1.6-0.2l5.1-8.7   C99.5,164.9,95.8,165.6,91.9,166z"
          fill="RGB(107, 38, 197)" stroke-width="0"/>
    <g>
		<path d="M173,55.6l-7.3,12.1l11.4-0.4C176.1,63.2,174.8,59.3,173,55.6z" fill="RGB(107, 38, 197)"
              stroke-width="0"/>
        <path d="M109.5,162l-5.7,9.6c17.3-3.4,33-11.6,45.7-23l-14.6-0.7C127.3,154,118.8,158.8,109.5,162z"
              fill="RGB(107, 38, 197)" stroke-width="0"/>
        <path d="M72.9,165.9c-5-0.7-9.7-1.9-14.2-3.6c-0.5-0.2-0.9-0.4-1.4-0.5c-0.5-0.2-0.9-0.4-1.4-0.6    c-0.5-0.2-1-0.4-1.4-0.6c-0.4-0.2-0.9-0.4-1.3-0.6c-0.5-0.2-1-0.5-1.4-0.7c-0.4-0.2-0.8-0.4-1.2-0.7c-0.5-0.3-0.9-0.5-1.4-0.8    c-0.4-0.2-0.8-0.5-1.2-0.7c-0.5-0.3-0.9-0.6-1.4-0.9c-0.4-0.2-0.7-0.5-1.1-0.7c-0.5-0.3-0.9-0.6-1.4-0.9c-0.3-0.2-0.7-0.5-1-0.7    c-0.5-0.3-0.9-0.7-1.4-1c-0.3-0.3-0.6-0.5-1-0.8c-0.4-0.4-0.9-0.7-1.3-1.1c-0.3-0.3-0.6-0.5-0.9-0.8c-0.4-0.4-0.9-0.8-1.3-1.2    c-0.3-0.3-0.6-0.5-0.8-0.8c-0.4-0.4-0.8-0.8-1.2-1.3c-0.3-0.3-0.5-0.6-0.8-0.9c-0.4-0.4-0.8-0.9-1.2-1.3c-0.3-0.3-0.5-0.6-0.7-0.9    c-3-3.6-5.5-7.6-7.6-11.9l-5.4,0.2c1.6,3.7,3.6,7.3,5.9,10.6l0,0c0.2,0.3,0.4,0.5,0.6,0.8c0.3,0.5,0.7,1,1,1.4    c0.4,0.5,0.7,1,1.1,1.5c0.4,0.5,0.7,0.9,1.1,1.4c0.4,0.5,0.8,0.9,1.2,1.4c0.4,0.5,0.8,0.9,1.2,1.3c0.4,0.4,0.8,0.9,1.2,1.3    c0.4,0.4,0.9,0.9,1.3,1.3c0.4,0.4,0.8,0.8,1.3,1.2c0.5,0.4,1,0.9,1.5,1.3c0.4,0.4,0.8,0.7,1.3,1.1c0.5,0.5,1.1,0.9,1.7,1.3    c0.4,0.3,0.8,0.6,1.2,0.9c0.7,0.5,1.5,1.1,2.2,1.6c0.3,0.2,0.5,0.4,0.8,0.5c1,0.7,2.1,1.3,3.1,2c0.2,0.1,0.4,0.2,0.6,0.3    c0.9,0.5,1.8,1,2.7,1.5c0.3,0.2,0.7,0.3,1,0.5c0.8,0.4,1.6,0.8,2.4,1.1c0.4,0.2,0.8,0.3,1.2,0.5c0.8,0.3,1.5,0.7,2.3,1    c0.4,0.2,0.8,0.3,1.3,0.5c0.5,0.2,1.1,0.4,1.6,0.6l0,0c5.3,1.9,10.9,3.2,16.8,3.8L72.9,165.9z"
              fill="RGB(107, 38, 197)" stroke-width="0"/>
        <path d="M96.5,16.3c-0.3,0-0.7,0.1-1,0.1l7.5,11.3c17.2,0.5,32.4,6.9,43.4,17.3l19.3-1.5C150.9,24,125.4,13,96.5,16.3    z"
              fill="RGB(107, 38, 197)" stroke-width="0"/>
        <path d="M53.3,32.7C38.6,42.9,26.9,57,20.1,72.9l7.1-0.3c3.8-7.2,8.7-14,14.6-19.9c0.5-0.5,0.9-0.9,1.4-1.3    c0.6-0.6,1.3-1.2,2-1.8c0.6-0.5,1.2-1,1.7-1.5c0.6-0.5,1.2-1,1.8-1.5c0.6-0.5,1.2-1,1.8-1.4c0.7-0.5,1.3-1,2-1.5    c5.4-3.9,11.3-7.2,17.5-9.8l7.1-13.2C68.7,23.6,60.7,27.7,53.3,32.7L53.3,32.7z"
              fill="RGB(107, 38, 197)" stroke-width="0"/>
	</g>
    <g>
		<path d="M160.5,67.9l12.3-20.5L113.9,52L87.1,11.8l-23.8,44l-19,1.4c-4.5,4.7-8.3,9.8-11.4,15.2L160.5,67.9z"
              fill="rgb(107, 38, 197)" stroke-width="0"/>
        <path d="M30.1,131.8c1.3,2.4,2.7,4.8,4.4,7l29.3,1.3L89.5,187l26.4-44.4l60.9,3L164.3,127L30.1,131.8z"
              fill="rgb(107, 38, 197)" stroke-width="0"/>
	</g>
    <g>
		<path d="M18.9,64L15,56.8l8.6-0.7c0.7-1.1,1.4-2.2,2.2-3.2l-15.7,1.3l7.2,13.1C17.8,66.2,18.4,65.1,18.9,64z"
              fill="rgb(107, 38, 197)" stroke-width="0"/>
        <path d="M185.8,39.7l-68.3,5.8L86.8,0l-27,50.2l-8.7,0.7c-1.3,1.1-2.6,2.2-3.8,3.3l14.4-1.2L87.1,5.9l28.8,42.7    l64.2-5.4l-14.8,24.5l3.6-0.1L185.8,39.7z"
              fill="rgb(107, 38, 197)" stroke-width="0"/>
        <path d="M184.8,150l-66.6-3.8l-28.5,47.7l-27.5-50.7l-25.3-1.3c1,1.1,2,2.2,3,3.2l20.4,1.1L89.6,200l30.2-50.7l70.9,4    l-18.1-26.6l-3.6,0.1L184.8,150z"
              fill="rgb(107, 38, 197)" stroke-width="0"/>
        <path d="M14.2,140.6l2-3.7c-0.6-1.1-1.1-2.3-1.6-3.4l-5.4,9.9l11,0.6c-0.7-1-1.3-2.1-1.9-3.1L14.2,140.6z"
              fill="rgb(107, 38, 197)" stroke-width="0"/>
	</g>
</g>
</svg>
        </g>
    </g>
    <g id="shape_vnJ69ZZodS"
       transform="translate(224.04464272102234,-9.389571565111737) rotate(358,200.58045952057083,303.5) scale(1,1)"
       filter="url(#filter_shadow_shape_vnJ69ZZodS)" style="cursor: move; opacity: 1;">
        <g>
            <svg xmlns="http://www.w3.org/2000/svg" xmlns:xlink="http://www.w3.org/1999/xlink" version="1.1"
                 width="567.1609190411416" height="607" viewBox="0 0 567.1609190411416 607"
                 data-parent="shape_vnJ69ZZodS">
                <rect fill="rgba(0,0,0,0)" width="235.16091904114165" height="83" x="83" y="262"/>
                <g data-width="207.002" transform="translate(97.07945952057082, 0)">
                    <path d="M39.92-43.99L8.05-43.99L9.63-51.96L59.84-51.96L58.27-43.99L23.24-12.95L54.28-12.95L53.45-4.98L2.49-4.98L4.07-12.95L39.92-43.99Z"
                          transform="translate(0 332) " fill="#6b26c5" stroke="#6b26c5" stroke-width="0.138"
                          data-glyph-w="62.333000000000006" data-glyph-h="107.9" data-glyph-ascender="83"
                          data-glyph-descender="-24.900000000000002"/>
                    <path d="M39.92-43.99L8.05-43.99L9.63-51.96L59.84-51.96L58.27-43.99L23.24-12.95L54.28-12.95L53.45-4.98L2.49-4.98L4.07-12.95L39.92-43.99Z"
                          transform="translate(62.333000000000006 332) " fill="#6b26c5" stroke="#6b26c5"
                          stroke-width="0.138" data-glyph-w="62.333000000000006" data-glyph-h="107.9"
                          data-glyph-ascender="83" data-glyph-descender="-24.900000000000002"/>
                    <path d="M3.32-5.06L4.65-14.53L17.26-14.53L15.94-5.06L3.32-5.06Z"
                          transform="translate(124.66600000000001 332) " fill="#6b26c5" stroke="#6b26c5"
                          stroke-width="0.138" data-glyph-w="20.584" data-glyph-h="107.9" data-glyph-ascender="83"
                          data-glyph-descender="-24.900000000000002"/>
                    <path d="M3.32-5.06L4.65-14.53L17.26-14.53L15.94-5.06L3.32-5.06Z" transform="translate(145.25 332) "
                          fill="#6b26c5" stroke="#6b26c5" stroke-width="0.138" data-glyph-w="20.584"
                          data-glyph-h="107.9" data-glyph-ascender="83" data-glyph-descender="-24.900000000000002"/>
                    <path d="M3.32-5.06L4.65-14.53L17.26-14.53L15.94-5.06L3.32-5.06Z"
                          transform="translate(165.834 332) " fill="#6b26c5" stroke="#6b26c5" stroke-width="0.138"
                          data-glyph-w="20.584" data-glyph-h="107.9" data-glyph-ascender="83"
                          data-glyph-descender="-24.900000000000002"/>
                    <path d="M3.32-5.06L4.65-14.53L17.26-14.53L15.94-5.06L3.32-5.06Z"
                          transform="translate(186.418 332) " fill="#6b26c5" stroke="#6b26c5" stroke-width="0.138"
                          data-glyph-w="20.584" data-glyph-h="107.9" data-glyph-ascender="83"
                          data-glyph-descender="-24.900000000000002"/>
                </g>
            </svg>
        </g>
    </g>
    <g id="shape_gaL3mdqcEy"
       transform="translate(188.60647046689382,76.46042843488829) rotate(-2,102.30967247242876,217.64999999999998) scale(1,1)"
       filter="url(#filter_shadow_shape_gaL3mdqcEy)" style="cursor: move; opacity: 1;">
        <g>
            <svg xmlns="http://www.w3.org/2000/svg" xmlns:xlink="http://www.w3.org/1999/xlink" version="1.1"
                 width="325.7193449448575" height="435.29999999999995"
                 viewBox="0 0 325.7193449448575 435.29999999999995" data-parent="shape_gaL3mdqcEy">
                <rect fill="rgba(0,0,0,0)" width="83.51934494485751" height="72" x="60.55" y="181.64999999999998"/>
                <g data-width="28.7007" transform="translate(87.95932247242875, 0)">
                    <path d="M27.01 0L2.12 0L2.12-2.97L19.44-28.40L4.00-28.40L4.00-32.88L26.40-32.88L26.40-29.91L9.08-4.48L27.01-4.48L27.01 0Z"
                          transform="translate(0 240.64999999999998) skewX(-19)" fill="rgb(47, 0, 255)"
                          stroke="rgb(47, 0, 255)" stroke-width="7.4539" stroke-miterlimit="3" data-glyph-w="28.7007"
                          data-glyph-h="60.55" data-glyph-ascender="53.284" data-glyph-descender="-7.266"/>
                </g>
                <g data-width="28.7007" transform="translate(87.95932247242875, 0)">
                    <path d="M27.01 0L2.12 0L2.12-2.97L19.44-28.40L4.00-28.40L4.00-32.88L26.40-32.88L26.40-29.91L9.08-4.48L27.01-4.48L27.01 0Z"
                          transform="translate(0 240.64999999999998) skewX(-19)" fill="#EC008C" stroke="#EC008C"
                          stroke-width="0.101" data-glyph-w="28.7007" data-glyph-h="60.55" data-glyph-ascender="53.284"
                          data-glyph-descender="-7.266"/>
                </g>
            </svg>
        </g>
    </g> <!---->
</svg>