<?xml version="1.0" standalone="no"?><!DOCTYPE svg PUBLIC "-//W3C//DTD SVG 1.1//EN" "http://www.w3.org/Graphics/SVG/1.1/DTD/svg11.dtd"><svg t="1690456878779" class="icon" viewBox="0 0 1025 1024" version="1.1" xmlns="http://www.w3.org/2000/svg" p-id="30573" xmlns:xlink="http://www.w3.org/1999/xlink" width="200.1953125" height="200"><path d="M609.28 768h32.426667v59.733333h-32.426667V768z" p-id="30574" fill="#1296db"></path><path d="M996.693333 467.626667h-18.773333c-5.12-46.08-17.066667-92.16-34.133333-134.826667-23.893333-56.32-58.026667-105.813333-100.693334-148.48-42.666667-42.666667-93.866667-76.8-148.48-100.693333-58.026667-23.893333-119.466667-37.546667-182.613333-37.546667-63.146667 0-124.586667 11.946667-182.613333 37.546667-56.32 23.893333-105.813333 58.026667-148.48 100.693333-34.133333 34.133333-63.146667 73.386667-85.333334 116.053333L69.973333 273.066667l-44.373333 61.44L73.386667 358.4c-5.12 11.946667-8.533333 23.893333-11.946667 35.84H17.066667l10.24 71.68 20.48-6.826667c0 3.413333 0 5.12-1.706667 8.533334h-17.066667c-15.36 0-29.013333 13.653333-29.013333 29.013333v88.746667c1.706667 15.36 13.653333 29.013333 30.72 29.013333h34.133333c15.36 0 29.013333-13.653333 29.013334-29.013333v-88.746667c0-8.533333-3.413333-15.36-8.533334-20.48 1.706667-10.24 1.706667-18.773333 3.413334-29.013333l35.84-11.946667c-5.12 25.6-8.533333 52.906667-8.533334 81.92 0 17.066667 1.706667 35.84 3.413334 52.906667l3.413333 6.826666c39.253333 63.146667 93.866667 116.053333 158.72 150.186667 51.2 27.306667 107.52 46.08 165.546667 51.2 6.826667-10.24 17.066667-17.066667 30.72-17.066667h73.386666c20.48 0 35.84 17.066667 35.84 35.84 0 20.48-17.066667 35.84-35.84 35.84h-73.386666c-13.653333 0-27.306667-8.533333-32.426667-20.48-63.146667-6.826667-124.586667-25.6-180.906667-54.613333-46.08-25.6-87.04-58.026667-121.173333-95.573333 56.32 141.653333 191.146667 242.346667 351.573333 249.173333l-29.013333 64.853333s218.453333-104.106667 221.866667-105.813333c131.413333-64.853333 220.16-199.68 220.16-354.986667C907.946667 296.96 730.453333 119.466667 512 119.466667c-160.426667 0-298.666667 95.573333-361.813333 233.813333l-25.6-23.893333c20.48-44.373333 49.493333-83.626667 83.626666-117.76 39.253333-39.253333 85.333333-69.973333 136.533334-92.16 52.906667-22.186667 109.226667-34.133333 167.253333-34.133334s114.346667 11.946667 167.253333 34.133334c51.2 22.186667 97.28 52.906667 136.533334 92.16s69.973333 85.333333 92.16 136.533333c17.066667 40.96 27.306667 83.626667 32.426666 128-5.12 5.12-8.533333 11.946667-8.533333 20.48v88.746667c0 15.36 13.653333 29.013333 29.013333 29.013333h34.133334c15.36 0 29.013333-13.653333 29.013333-29.013333v-88.746667c1.706667-17.066667-10.24-29.013333-27.306667-29.013333z m-484.693333-133.12c196.266667 0 356.693333 69.973333 356.693333 157.013333S708.266667 648.533333 512 648.533333 155.306667 578.56 155.306667 491.52s158.72-157.013333 356.693333-157.013333zM133.12 394.24h-34.133333c1.706667-6.826667 3.413333-13.653333 6.826666-20.48l29.013334 13.653333-1.706667 6.826667z" p-id="30575" fill="#1296db"></path><path d="M288.426667 534.186667l112.64-22.186667c15.36-3.413333 18.773333-23.893333 3.413333-30.72-37.546667-17.066667-87.04-37.546667-105.813333-29.013333-20.48 10.24-27.306667 40.96-29.013334 63.146666-1.706667 11.946667 6.826667 22.186667 18.773334 18.773334z m346.453333-20.48l112.64 22.186666c10.24 1.706667 20.48-6.826667 18.773333-18.773333-1.706667-22.186667-10.24-54.613333-29.013333-63.146667-18.773333-10.24-69.973333 10.24-105.813333 27.306667-15.36 6.826667-11.946667 29.013333 3.413333 32.426667z" p-id="30576" fill="#1296db"></path></svg>