<svg width="43" height="44" viewBox="0 0 43 44" fill="none" xmlns="http://www.w3.org/2000/svg">
<rect y="0.5" width="43" height="43" rx="21.5" fill="white"/>
<path fill-rule="evenodd" clip-rule="evenodd" d="M27.6445 14.2221C27.6445 14.9523 27.0525 15.5443 26.3223 15.5443C25.5921 15.5443 25.0001 14.9523 25.0001 14.2221C25.0001 13.4918 25.5921 12.8998 26.3223 12.8998C27.0525 12.8998 27.6445 13.4918 27.6445 14.2221ZM28.889 19.5111L28.9667 20.6C29.9779 20.6 30.7556 21.4555 30.8334 22.4667V23.7889C30.8334 24.8 29.9779 25.6555 28.9667 25.6555H28.889V27.5222C28.8112 29.1555 27.5667 30.4 25.9334 30.4H22.9779C22.7445 30.9444 22.1223 31.3333 21.5001 31.3333C20.5667 31.3333 19.8667 30.5555 19.8667 29.7C19.8667 28.7667 20.5667 28.0667 21.5001 28.0667C22.1223 28.0667 22.7445 28.3778 22.9779 29H25.9334C26.789 29 27.489 28.3 27.489 27.4444V19.5889C27.489 18.7333 26.789 18.0333 25.9334 18.0333H16.989C16.1334 18.0333 15.4334 18.7333 15.4334 19.5889V25.8111H14.0334C13.0223 25.7333 12.1667 24.8778 12.1667 23.8667V22.5444C12.1667 21.4555 13.0223 20.6 14.0334 20.6H14.189V19.5111C14.189 17.8778 15.5112 16.6333 17.0667 16.5555H26.0112C27.6445 16.6333 28.889 17.8778 28.889 19.5111ZM16.6776 15.5443C17.4078 15.5443 17.9998 14.9523 17.9998 14.2221C17.9998 13.4918 17.4078 12.8998 16.6776 12.8998C15.9473 12.8998 15.3554 13.4918 15.3554 14.2221C15.3554 14.9523 15.9473 15.5443 16.6776 15.5443ZM23.2111 26.6665L21.6556 25.4998L20.0223 26.6665L18.2334 25.3443C18 25.1109 18 24.7998 18.1556 24.5665C18.3889 24.3332 18.7 24.3332 18.9334 24.4887L20.1 25.3443L21.6556 24.1776L23.2111 25.3443L24.3778 24.4887C24.6111 24.2554 25 24.3332 25.1556 24.5665C25.3889 24.7998 25.3111 25.1887 25.0778 25.3443L24.7667 25.4998L23.2111 26.6665ZM19.0884 22.8557C19.8186 22.8557 20.4106 22.2637 20.4106 21.5335C20.4106 20.8032 19.8186 20.2113 19.0884 20.2113C18.3581 20.2113 17.7662 20.8032 17.7662 21.5335C17.7662 22.2637 18.3581 22.8557 19.0884 22.8557ZM25.2337 21.5335C25.2337 22.2637 24.6417 22.8557 23.9115 22.8557C23.1813 22.8557 22.5893 22.2637 22.5893 21.5335C22.5893 20.8032 23.1813 20.2113 23.9115 20.2113C24.6417 20.2113 25.2337 20.8032 25.2337 21.5335Z" fill="#0566FF"/>
</svg>
